<mxfile host="app.diagrams.net" modified="2021-12-22T06:32:55.963Z" agent="5.0 (Windows NT 10.0; Win64; x64) AppleWebKit/537.36 (KHTML, like Gecko) Chrome/96.0.4664.93 Safari/537.36" etag="903tLYc4Xx17vqkKr6GI" version="16.0.0" type="github">
  <diagram id="C5RBs43oDa-KdzZeNtuy" name="Page-1">
    <mxGraphModel dx="2891" dy="690" grid="0" gridSize="10" guides="1" tooltips="1" connect="1" arrows="1" fold="1" page="1" pageScale="1" pageWidth="827" pageHeight="1169" math="0" shadow="0">
      <root>
        <mxCell id="WIyWlLk6GJQsqaUBKTNV-0" />
        <mxCell id="WIyWlLk6GJQsqaUBKTNV-1" parent="WIyWlLk6GJQsqaUBKTNV-0" />
        <mxCell id="m4Vz5OQMiFnLoZ4AvXB2-16" style="edgeStyle=orthogonalEdgeStyle;rounded=0;orthogonalLoop=1;jettySize=auto;html=1;exitX=0.5;exitY=1;exitDx=0;exitDy=0;entryX=0.5;entryY=0;entryDx=0;entryDy=0;" edge="1" parent="WIyWlLk6GJQsqaUBKTNV-1" source="WIyWlLk6GJQsqaUBKTNV-3" target="m4Vz5OQMiFnLoZ4AvXB2-15">
          <mxGeometry relative="1" as="geometry" />
        </mxCell>
        <mxCell id="WIyWlLk6GJQsqaUBKTNV-3" value="修改合同" style="rounded=1;whiteSpace=wrap;html=1;fontSize=12;glass=0;strokeWidth=1;shadow=0;" parent="WIyWlLk6GJQsqaUBKTNV-1" vertex="1">
          <mxGeometry x="398" y="37" width="120" height="40" as="geometry" />
        </mxCell>
        <mxCell id="m4Vz5OQMiFnLoZ4AvXB2-25" style="edgeStyle=orthogonalEdgeStyle;rounded=0;orthogonalLoop=1;jettySize=auto;html=1;exitX=0;exitY=0.5;exitDx=0;exitDy=0;entryX=0.5;entryY=0;entryDx=0;entryDy=0;" edge="1" parent="WIyWlLk6GJQsqaUBKTNV-1" source="WIyWlLk6GJQsqaUBKTNV-6" target="m4Vz5OQMiFnLoZ4AvXB2-3">
          <mxGeometry relative="1" as="geometry" />
        </mxCell>
        <mxCell id="m4Vz5OQMiFnLoZ4AvXB2-28" value="修改person表" style="edgeLabel;html=1;align=center;verticalAlign=middle;resizable=0;points=[];" vertex="1" connectable="0" parent="m4Vz5OQMiFnLoZ4AvXB2-25">
          <mxGeometry x="0.0059" y="4" relative="1" as="geometry">
            <mxPoint as="offset" />
          </mxGeometry>
        </mxCell>
        <mxCell id="m4Vz5OQMiFnLoZ4AvXB2-27" style="edgeStyle=orthogonalEdgeStyle;rounded=0;orthogonalLoop=1;jettySize=auto;html=1;exitX=1;exitY=0.5;exitDx=0;exitDy=0;entryX=0.5;entryY=0;entryDx=0;entryDy=0;" edge="1" parent="WIyWlLk6GJQsqaUBKTNV-1" source="WIyWlLk6GJQsqaUBKTNV-6" target="m4Vz5OQMiFnLoZ4AvXB2-6">
          <mxGeometry relative="1" as="geometry" />
        </mxCell>
        <mxCell id="m4Vz5OQMiFnLoZ4AvXB2-29" value="修改clause表" style="edgeLabel;html=1;align=center;verticalAlign=middle;resizable=0;points=[];" vertex="1" connectable="0" parent="m4Vz5OQMiFnLoZ4AvXB2-27">
          <mxGeometry x="0.1824" y="-1" relative="1" as="geometry">
            <mxPoint as="offset" />
          </mxGeometry>
        </mxCell>
        <mxCell id="WIyWlLk6GJQsqaUBKTNV-6" value="修改person信息 OR clause信息" style="rhombus;whiteSpace=wrap;html=1;shadow=0;fontFamily=Helvetica;fontSize=12;align=center;strokeWidth=1;spacing=6;spacingTop=-4;" parent="WIyWlLk6GJQsqaUBKTNV-1" vertex="1">
          <mxGeometry x="152" y="315" width="194" height="110" as="geometry" />
        </mxCell>
        <mxCell id="WIyWlLk6GJQsqaUBKTNV-11" value="Repair Lamp" style="rounded=1;whiteSpace=wrap;html=1;fontSize=12;glass=0;strokeWidth=1;shadow=0;" parent="WIyWlLk6GJQsqaUBKTNV-1" vertex="1">
          <mxGeometry x="674" y="829" width="120" height="40" as="geometry" />
        </mxCell>
        <mxCell id="m4Vz5OQMiFnLoZ4AvXB2-42" style="edgeStyle=orthogonalEdgeStyle;rounded=0;orthogonalLoop=1;jettySize=auto;html=1;exitX=0.5;exitY=1;exitDx=0;exitDy=0;entryX=0.5;entryY=0;entryDx=0;entryDy=0;" edge="1" parent="WIyWlLk6GJQsqaUBKTNV-1" source="m4Vz5OQMiFnLoZ4AvXB2-3" target="m4Vz5OQMiFnLoZ4AvXB2-41">
          <mxGeometry relative="1" as="geometry">
            <Array as="points">
              <mxPoint x="92" y="537" />
              <mxPoint x="458" y="537" />
            </Array>
          </mxGeometry>
        </mxCell>
        <mxCell id="m4Vz5OQMiFnLoZ4AvXB2-3" value="&lt;span&gt;查找修改person表&lt;/span&gt;" style="rounded=0;whiteSpace=wrap;html=1;" vertex="1" parent="WIyWlLk6GJQsqaUBKTNV-1">
          <mxGeometry x="32" y="432" width="120" height="60" as="geometry" />
        </mxCell>
        <mxCell id="m4Vz5OQMiFnLoZ4AvXB2-22" style="edgeStyle=orthogonalEdgeStyle;rounded=0;orthogonalLoop=1;jettySize=auto;html=1;exitX=0.5;exitY=1;exitDx=0;exitDy=0;" edge="1" parent="WIyWlLk6GJQsqaUBKTNV-1" source="m4Vz5OQMiFnLoZ4AvXB2-5" target="m4Vz5OQMiFnLoZ4AvXB2-7">
          <mxGeometry relative="1" as="geometry" />
        </mxCell>
        <mxCell id="m4Vz5OQMiFnLoZ4AvXB2-5" value="&lt;span&gt;增加clause表对应条款&lt;/span&gt;" style="rounded=0;whiteSpace=wrap;html=1;" vertex="1" parent="WIyWlLk6GJQsqaUBKTNV-1">
          <mxGeometry x="442" y="735" width="120" height="60" as="geometry" />
        </mxCell>
        <mxCell id="m4Vz5OQMiFnLoZ4AvXB2-7" value="结束" style="rounded=1;whiteSpace=wrap;html=1;fontSize=12;glass=0;strokeWidth=1;shadow=0;" vertex="1" parent="WIyWlLk6GJQsqaUBKTNV-1">
          <mxGeometry x="459" y="840" width="120" height="40" as="geometry" />
        </mxCell>
        <mxCell id="m4Vz5OQMiFnLoZ4AvXB2-34" style="edgeStyle=orthogonalEdgeStyle;rounded=0;orthogonalLoop=1;jettySize=auto;html=1;exitX=0.5;exitY=1;exitDx=0;exitDy=0;entryX=0.5;entryY=0;entryDx=0;entryDy=0;" edge="1" parent="WIyWlLk6GJQsqaUBKTNV-1" source="m4Vz5OQMiFnLoZ4AvXB2-15" target="m4Vz5OQMiFnLoZ4AvXB2-32">
          <mxGeometry relative="1" as="geometry" />
        </mxCell>
        <mxCell id="m4Vz5OQMiFnLoZ4AvXB2-15" value="更新contract表更新时间" style="rounded=0;whiteSpace=wrap;html=1;" vertex="1" parent="WIyWlLk6GJQsqaUBKTNV-1">
          <mxGeometry x="398" y="127" width="120" height="60" as="geometry" />
        </mxCell>
        <mxCell id="m4Vz5OQMiFnLoZ4AvXB2-44" style="edgeStyle=orthogonalEdgeStyle;rounded=0;orthogonalLoop=1;jettySize=auto;html=1;exitX=0.5;exitY=1;exitDx=0;exitDy=0;" edge="1" parent="WIyWlLk6GJQsqaUBKTNV-1" source="m4Vz5OQMiFnLoZ4AvXB2-6" target="m4Vz5OQMiFnLoZ4AvXB2-41">
          <mxGeometry relative="1" as="geometry" />
        </mxCell>
        <mxCell id="m4Vz5OQMiFnLoZ4AvXB2-6" value="查找修改clause表" style="rounded=0;whiteSpace=wrap;html=1;" vertex="1" parent="WIyWlLk6GJQsqaUBKTNV-1">
          <mxGeometry x="343" y="419" width="120" height="60" as="geometry" />
        </mxCell>
        <mxCell id="m4Vz5OQMiFnLoZ4AvXB2-30" style="edgeStyle=orthogonalEdgeStyle;rounded=0;orthogonalLoop=1;jettySize=auto;html=1;exitX=0.5;exitY=1;exitDx=0;exitDy=0;" edge="1" parent="WIyWlLk6GJQsqaUBKTNV-1" source="m4Vz5OQMiFnLoZ4AvXB2-3" target="m4Vz5OQMiFnLoZ4AvXB2-3">
          <mxGeometry relative="1" as="geometry" />
        </mxCell>
        <mxCell id="m4Vz5OQMiFnLoZ4AvXB2-35" style="edgeStyle=orthogonalEdgeStyle;rounded=0;orthogonalLoop=1;jettySize=auto;html=1;exitX=0;exitY=0.5;exitDx=0;exitDy=0;entryX=0.5;entryY=0;entryDx=0;entryDy=0;entryPerimeter=0;" edge="1" parent="WIyWlLk6GJQsqaUBKTNV-1" source="m4Vz5OQMiFnLoZ4AvXB2-32" target="WIyWlLk6GJQsqaUBKTNV-6">
          <mxGeometry relative="1" as="geometry" />
        </mxCell>
        <mxCell id="m4Vz5OQMiFnLoZ4AvXB2-40" value="更改部分信息" style="edgeLabel;html=1;align=center;verticalAlign=middle;resizable=0;points=[];" vertex="1" connectable="0" parent="m4Vz5OQMiFnLoZ4AvXB2-35">
          <mxGeometry x="0.4747" y="-1" relative="1" as="geometry">
            <mxPoint as="offset" />
          </mxGeometry>
        </mxCell>
        <mxCell id="m4Vz5OQMiFnLoZ4AvXB2-36" style="edgeStyle=orthogonalEdgeStyle;rounded=0;orthogonalLoop=1;jettySize=auto;html=1;exitX=1;exitY=0.5;exitDx=0;exitDy=0;entryX=0.5;entryY=0;entryDx=0;entryDy=0;" edge="1" parent="WIyWlLk6GJQsqaUBKTNV-1" source="m4Vz5OQMiFnLoZ4AvXB2-32" target="m4Vz5OQMiFnLoZ4AvXB2-33">
          <mxGeometry relative="1" as="geometry" />
        </mxCell>
        <mxCell id="m4Vz5OQMiFnLoZ4AvXB2-39" value="更改全部信息" style="edgeLabel;html=1;align=center;verticalAlign=middle;resizable=0;points=[];" vertex="1" connectable="0" parent="m4Vz5OQMiFnLoZ4AvXB2-36">
          <mxGeometry x="0.1443" y="1" relative="1" as="geometry">
            <mxPoint as="offset" />
          </mxGeometry>
        </mxCell>
        <mxCell id="m4Vz5OQMiFnLoZ4AvXB2-32" value="校验信息" style="rhombus;whiteSpace=wrap;html=1;shadow=0;fontFamily=Helvetica;fontSize=12;align=center;strokeWidth=1;spacing=6;spacingTop=-4;" vertex="1" parent="WIyWlLk6GJQsqaUBKTNV-1">
          <mxGeometry x="361" y="218" width="194" height="110" as="geometry" />
        </mxCell>
        <mxCell id="m4Vz5OQMiFnLoZ4AvXB2-38" style="edgeStyle=orthogonalEdgeStyle;rounded=0;orthogonalLoop=1;jettySize=auto;html=1;exitX=0.5;exitY=1;exitDx=0;exitDy=0;entryX=0.5;entryY=0;entryDx=0;entryDy=0;" edge="1" parent="WIyWlLk6GJQsqaUBKTNV-1" source="m4Vz5OQMiFnLoZ4AvXB2-33" target="m4Vz5OQMiFnLoZ4AvXB2-37">
          <mxGeometry relative="1" as="geometry" />
        </mxCell>
        <mxCell id="m4Vz5OQMiFnLoZ4AvXB2-33" value="查找修改person表" style="rounded=0;whiteSpace=wrap;html=1;" vertex="1" parent="WIyWlLk6GJQsqaUBKTNV-1">
          <mxGeometry x="601" y="341" width="120" height="60" as="geometry" />
        </mxCell>
        <mxCell id="m4Vz5OQMiFnLoZ4AvXB2-45" style="edgeStyle=orthogonalEdgeStyle;rounded=0;orthogonalLoop=1;jettySize=auto;html=1;exitX=0.5;exitY=1;exitDx=0;exitDy=0;entryX=0.5;entryY=0;entryDx=0;entryDy=0;" edge="1" parent="WIyWlLk6GJQsqaUBKTNV-1" source="m4Vz5OQMiFnLoZ4AvXB2-37" target="m4Vz5OQMiFnLoZ4AvXB2-41">
          <mxGeometry relative="1" as="geometry" />
        </mxCell>
        <mxCell id="m4Vz5OQMiFnLoZ4AvXB2-37" value="查找修改clause表" style="rounded=0;whiteSpace=wrap;html=1;" vertex="1" parent="WIyWlLk6GJQsqaUBKTNV-1">
          <mxGeometry x="601" y="466" width="120" height="60" as="geometry" />
        </mxCell>
        <mxCell id="m4Vz5OQMiFnLoZ4AvXB2-41" value="结束" style="rounded=1;whiteSpace=wrap;html=1;fontSize=12;glass=0;strokeWidth=1;shadow=0;" vertex="1" parent="WIyWlLk6GJQsqaUBKTNV-1">
          <mxGeometry x="398" y="597" width="120" height="40" as="geometry" />
        </mxCell>
        <mxCell id="m4Vz5OQMiFnLoZ4AvXB2-51" style="edgeStyle=orthogonalEdgeStyle;rounded=0;orthogonalLoop=1;jettySize=auto;html=1;exitX=0.5;exitY=1;exitDx=0;exitDy=0;entryX=0.5;entryY=0;entryDx=0;entryDy=0;" edge="1" parent="WIyWlLk6GJQsqaUBKTNV-1" source="m4Vz5OQMiFnLoZ4AvXB2-46" target="m4Vz5OQMiFnLoZ4AvXB2-50">
          <mxGeometry relative="1" as="geometry" />
        </mxCell>
        <mxCell id="m4Vz5OQMiFnLoZ4AvXB2-46" value="增加合同" style="rounded=1;whiteSpace=wrap;html=1;fontSize=12;glass=0;strokeWidth=1;shadow=0;" vertex="1" parent="WIyWlLk6GJQsqaUBKTNV-1">
          <mxGeometry x="-1366.25" y="12" width="120" height="40" as="geometry" />
        </mxCell>
        <mxCell id="m4Vz5OQMiFnLoZ4AvXB2-54" style="edgeStyle=orthogonalEdgeStyle;rounded=0;orthogonalLoop=1;jettySize=auto;html=1;exitX=0.5;exitY=1;exitDx=0;exitDy=0;entryX=0.5;entryY=0;entryDx=0;entryDy=0;" edge="1" parent="WIyWlLk6GJQsqaUBKTNV-1" source="m4Vz5OQMiFnLoZ4AvXB2-47" target="m4Vz5OQMiFnLoZ4AvXB2-49">
          <mxGeometry relative="1" as="geometry" />
        </mxCell>
        <mxCell id="m4Vz5OQMiFnLoZ4AvXB2-47" value="更新contract表更新时间" style="rounded=0;whiteSpace=wrap;html=1;" vertex="1" parent="WIyWlLk6GJQsqaUBKTNV-1">
          <mxGeometry x="-1366.25" y="193" width="120" height="60" as="geometry" />
        </mxCell>
        <mxCell id="m4Vz5OQMiFnLoZ4AvXB2-56" style="edgeStyle=orthogonalEdgeStyle;rounded=0;orthogonalLoop=1;jettySize=auto;html=1;exitX=0.5;exitY=1;exitDx=0;exitDy=0;entryX=0.5;entryY=0;entryDx=0;entryDy=0;" edge="1" parent="WIyWlLk6GJQsqaUBKTNV-1" source="m4Vz5OQMiFnLoZ4AvXB2-49" target="m4Vz5OQMiFnLoZ4AvXB2-55">
          <mxGeometry relative="1" as="geometry" />
        </mxCell>
        <mxCell id="m4Vz5OQMiFnLoZ4AvXB2-49" value="增加person表中记录信息" style="rounded=0;whiteSpace=wrap;html=1;" vertex="1" parent="WIyWlLk6GJQsqaUBKTNV-1">
          <mxGeometry x="-1366.25" y="293" width="120" height="60" as="geometry" />
        </mxCell>
        <mxCell id="m4Vz5OQMiFnLoZ4AvXB2-52" style="edgeStyle=orthogonalEdgeStyle;rounded=0;orthogonalLoop=1;jettySize=auto;html=1;exitX=0.5;exitY=1;exitDx=0;exitDy=0;entryX=0.5;entryY=0;entryDx=0;entryDy=0;" edge="1" parent="WIyWlLk6GJQsqaUBKTNV-1" source="m4Vz5OQMiFnLoZ4AvXB2-50" target="m4Vz5OQMiFnLoZ4AvXB2-47">
          <mxGeometry relative="1" as="geometry" />
        </mxCell>
        <mxCell id="m4Vz5OQMiFnLoZ4AvXB2-53" style="edgeStyle=orthogonalEdgeStyle;rounded=0;orthogonalLoop=1;jettySize=auto;html=1;exitX=1;exitY=0.5;exitDx=0;exitDy=0;entryX=1;entryY=0.5;entryDx=0;entryDy=0;" edge="1" parent="WIyWlLk6GJQsqaUBKTNV-1" source="m4Vz5OQMiFnLoZ4AvXB2-50" target="m4Vz5OQMiFnLoZ4AvXB2-59">
          <mxGeometry relative="1" as="geometry">
            <mxPoint x="-1190.1195652173913" y="117.39130434782612" as="targetPoint" />
            <Array as="points">
              <mxPoint x="-1139.25" y="117" />
              <mxPoint x="-1139.25" y="620" />
            </Array>
          </mxGeometry>
        </mxCell>
        <mxCell id="m4Vz5OQMiFnLoZ4AvXB2-60" value="信息不足" style="edgeLabel;html=1;align=center;verticalAlign=middle;resizable=0;points=[];" vertex="1" connectable="0" parent="m4Vz5OQMiFnLoZ4AvXB2-53">
          <mxGeometry x="-0.2573" y="-3" relative="1" as="geometry">
            <mxPoint as="offset" />
          </mxGeometry>
        </mxCell>
        <mxCell id="m4Vz5OQMiFnLoZ4AvXB2-50" value="校验信息" style="rhombus;whiteSpace=wrap;html=1;shadow=0;fontFamily=Helvetica;fontSize=12;align=center;strokeWidth=1;spacing=6;spacingTop=-4;" vertex="1" parent="WIyWlLk6GJQsqaUBKTNV-1">
          <mxGeometry x="-1380" y="81" width="147.5" height="73" as="geometry" />
        </mxCell>
        <mxCell id="m4Vz5OQMiFnLoZ4AvXB2-58" style="edgeStyle=orthogonalEdgeStyle;rounded=0;orthogonalLoop=1;jettySize=auto;html=1;exitX=0.5;exitY=1;exitDx=0;exitDy=0;entryX=0.5;entryY=0;entryDx=0;entryDy=0;" edge="1" parent="WIyWlLk6GJQsqaUBKTNV-1" source="m4Vz5OQMiFnLoZ4AvXB2-55" target="m4Vz5OQMiFnLoZ4AvXB2-57">
          <mxGeometry relative="1" as="geometry" />
        </mxCell>
        <mxCell id="m4Vz5OQMiFnLoZ4AvXB2-55" value="更新contract表中签约人、创建人id" style="rounded=0;whiteSpace=wrap;html=1;" vertex="1" parent="WIyWlLk6GJQsqaUBKTNV-1">
          <mxGeometry x="-1366.25" y="394" width="120" height="60" as="geometry" />
        </mxCell>
        <mxCell id="m4Vz5OQMiFnLoZ4AvXB2-61" style="edgeStyle=orthogonalEdgeStyle;rounded=0;orthogonalLoop=1;jettySize=auto;html=1;exitX=0.5;exitY=1;exitDx=0;exitDy=0;entryX=0.5;entryY=0;entryDx=0;entryDy=0;" edge="1" parent="WIyWlLk6GJQsqaUBKTNV-1" source="m4Vz5OQMiFnLoZ4AvXB2-57" target="m4Vz5OQMiFnLoZ4AvXB2-59">
          <mxGeometry relative="1" as="geometry" />
        </mxCell>
        <mxCell id="m4Vz5OQMiFnLoZ4AvXB2-57" value="增加clause表条款信息" style="rounded=0;whiteSpace=wrap;html=1;" vertex="1" parent="WIyWlLk6GJQsqaUBKTNV-1">
          <mxGeometry x="-1366.25" y="495" width="120" height="60" as="geometry" />
        </mxCell>
        <mxCell id="m4Vz5OQMiFnLoZ4AvXB2-59" value="结束" style="rounded=1;whiteSpace=wrap;html=1;fontSize=12;glass=0;strokeWidth=1;shadow=0;" vertex="1" parent="WIyWlLk6GJQsqaUBKTNV-1">
          <mxGeometry x="-1366.25" y="594" width="120" height="40" as="geometry" />
        </mxCell>
        <mxCell id="m4Vz5OQMiFnLoZ4AvXB2-79" style="edgeStyle=orthogonalEdgeStyle;rounded=0;orthogonalLoop=1;jettySize=auto;html=1;exitX=0.5;exitY=1;exitDx=0;exitDy=0;entryX=0.5;entryY=0;entryDx=0;entryDy=0;" edge="1" parent="WIyWlLk6GJQsqaUBKTNV-1" source="m4Vz5OQMiFnLoZ4AvXB2-65" target="m4Vz5OQMiFnLoZ4AvXB2-67">
          <mxGeometry relative="1" as="geometry" />
        </mxCell>
        <mxCell id="m4Vz5OQMiFnLoZ4AvXB2-65" value="删除合同" style="rounded=1;whiteSpace=wrap;html=1;fontSize=12;glass=0;strokeWidth=1;shadow=0;" vertex="1" parent="WIyWlLk6GJQsqaUBKTNV-1">
          <mxGeometry x="-1601" y="68" width="120" height="40" as="geometry" />
        </mxCell>
        <mxCell id="m4Vz5OQMiFnLoZ4AvXB2-66" style="edgeStyle=orthogonalEdgeStyle;rounded=0;orthogonalLoop=1;jettySize=auto;html=1;exitX=0.5;exitY=1;exitDx=0;exitDy=0;entryX=0.5;entryY=0;entryDx=0;entryDy=0;" edge="1" parent="WIyWlLk6GJQsqaUBKTNV-1" source="m4Vz5OQMiFnLoZ4AvXB2-67" target="m4Vz5OQMiFnLoZ4AvXB2-69">
          <mxGeometry relative="1" as="geometry" />
        </mxCell>
        <mxCell id="m4Vz5OQMiFnLoZ4AvXB2-67" value="更新contract表合同状态、更新时间" style="rounded=0;whiteSpace=wrap;html=1;" vertex="1" parent="WIyWlLk6GJQsqaUBKTNV-1">
          <mxGeometry x="-1601" y="143" width="120" height="60" as="geometry" />
        </mxCell>
        <mxCell id="m4Vz5OQMiFnLoZ4AvXB2-68" style="edgeStyle=orthogonalEdgeStyle;rounded=0;orthogonalLoop=1;jettySize=auto;html=1;exitX=0.5;exitY=1;exitDx=0;exitDy=0;entryX=0.5;entryY=0;entryDx=0;entryDy=0;" edge="1" parent="WIyWlLk6GJQsqaUBKTNV-1" source="m4Vz5OQMiFnLoZ4AvXB2-69" target="m4Vz5OQMiFnLoZ4AvXB2-75">
          <mxGeometry relative="1" as="geometry" />
        </mxCell>
        <mxCell id="m4Vz5OQMiFnLoZ4AvXB2-69" value="查找更新person表中记录删除标记" style="rounded=0;whiteSpace=wrap;html=1;" vertex="1" parent="WIyWlLk6GJQsqaUBKTNV-1">
          <mxGeometry x="-1601" y="235" width="120" height="60" as="geometry" />
        </mxCell>
        <mxCell id="m4Vz5OQMiFnLoZ4AvXB2-80" style="edgeStyle=orthogonalEdgeStyle;rounded=0;orthogonalLoop=1;jettySize=auto;html=1;exitX=0.5;exitY=1;exitDx=0;exitDy=0;entryX=0.5;entryY=0;entryDx=0;entryDy=0;" edge="1" parent="WIyWlLk6GJQsqaUBKTNV-1" source="m4Vz5OQMiFnLoZ4AvXB2-75" target="m4Vz5OQMiFnLoZ4AvXB2-78">
          <mxGeometry relative="1" as="geometry" />
        </mxCell>
        <mxCell id="m4Vz5OQMiFnLoZ4AvXB2-75" value="查找更新clause表记录删除标记" style="rounded=0;whiteSpace=wrap;html=1;" vertex="1" parent="WIyWlLk6GJQsqaUBKTNV-1">
          <mxGeometry x="-1601" y="329" width="120" height="60" as="geometry" />
        </mxCell>
        <mxCell id="m4Vz5OQMiFnLoZ4AvXB2-78" value="结束" style="rounded=1;whiteSpace=wrap;html=1;fontSize=12;glass=0;strokeWidth=1;shadow=0;" vertex="1" parent="WIyWlLk6GJQsqaUBKTNV-1">
          <mxGeometry x="-1601" y="423" width="120" height="40" as="geometry" />
        </mxCell>
        <mxCell id="m4Vz5OQMiFnLoZ4AvXB2-90" value="" style="edgeStyle=orthogonalEdgeStyle;rounded=0;orthogonalLoop=1;jettySize=auto;html=1;" edge="1" parent="WIyWlLk6GJQsqaUBKTNV-1" source="m4Vz5OQMiFnLoZ4AvXB2-81" target="m4Vz5OQMiFnLoZ4AvXB2-89">
          <mxGeometry relative="1" as="geometry" />
        </mxCell>
        <mxCell id="m4Vz5OQMiFnLoZ4AvXB2-81" value="查询合同信息" style="rounded=1;whiteSpace=wrap;html=1;fontSize=12;glass=0;strokeWidth=1;shadow=0;" vertex="1" parent="WIyWlLk6GJQsqaUBKTNV-1">
          <mxGeometry x="-564" y="33" width="120" height="40" as="geometry" />
        </mxCell>
        <mxCell id="m4Vz5OQMiFnLoZ4AvXB2-88" value="" style="edgeStyle=orthogonalEdgeStyle;rounded=0;orthogonalLoop=1;jettySize=auto;html=1;" edge="1" parent="WIyWlLk6GJQsqaUBKTNV-1" source="m4Vz5OQMiFnLoZ4AvXB2-82" target="m4Vz5OQMiFnLoZ4AvXB2-84">
          <mxGeometry relative="1" as="geometry" />
        </mxCell>
        <mxCell id="m4Vz5OQMiFnLoZ4AvXB2-82" value="查询person" style="rounded=0;whiteSpace=wrap;html=1;" vertex="1" parent="WIyWlLk6GJQsqaUBKTNV-1">
          <mxGeometry x="-564" y="352" width="120" height="60" as="geometry" />
        </mxCell>
        <mxCell id="m4Vz5OQMiFnLoZ4AvXB2-86" style="edgeStyle=orthogonalEdgeStyle;rounded=0;orthogonalLoop=1;jettySize=auto;html=1;exitX=0.5;exitY=1;exitDx=0;exitDy=0;" edge="1" parent="WIyWlLk6GJQsqaUBKTNV-1" source="m4Vz5OQMiFnLoZ4AvXB2-83" target="m4Vz5OQMiFnLoZ4AvXB2-82">
          <mxGeometry relative="1" as="geometry" />
        </mxCell>
        <mxCell id="m4Vz5OQMiFnLoZ4AvXB2-83" value="查询contract表" style="rounded=0;whiteSpace=wrap;html=1;" vertex="1" parent="WIyWlLk6GJQsqaUBKTNV-1">
          <mxGeometry x="-564" y="241" width="120" height="60" as="geometry" />
        </mxCell>
        <mxCell id="m4Vz5OQMiFnLoZ4AvXB2-94" value="" style="edgeStyle=orthogonalEdgeStyle;rounded=0;orthogonalLoop=1;jettySize=auto;html=1;" edge="1" parent="WIyWlLk6GJQsqaUBKTNV-1" source="m4Vz5OQMiFnLoZ4AvXB2-84" target="m4Vz5OQMiFnLoZ4AvXB2-92">
          <mxGeometry relative="1" as="geometry" />
        </mxCell>
        <mxCell id="m4Vz5OQMiFnLoZ4AvXB2-84" value="查询clause" style="rounded=0;whiteSpace=wrap;html=1;" vertex="1" parent="WIyWlLk6GJQsqaUBKTNV-1">
          <mxGeometry x="-564" y="451" width="120" height="60" as="geometry" />
        </mxCell>
        <mxCell id="m4Vz5OQMiFnLoZ4AvXB2-91" value="" style="edgeStyle=orthogonalEdgeStyle;rounded=0;orthogonalLoop=1;jettySize=auto;html=1;" edge="1" parent="WIyWlLk6GJQsqaUBKTNV-1" source="m4Vz5OQMiFnLoZ4AvXB2-89" target="m4Vz5OQMiFnLoZ4AvXB2-83">
          <mxGeometry relative="1" as="geometry" />
        </mxCell>
        <mxCell id="m4Vz5OQMiFnLoZ4AvXB2-95" style="edgeStyle=orthogonalEdgeStyle;rounded=0;orthogonalLoop=1;jettySize=auto;html=1;exitX=1;exitY=0.5;exitDx=0;exitDy=0;entryX=1;entryY=0.5;entryDx=0;entryDy=0;" edge="1" parent="WIyWlLk6GJQsqaUBKTNV-1" source="m4Vz5OQMiFnLoZ4AvXB2-89" target="m4Vz5OQMiFnLoZ4AvXB2-92">
          <mxGeometry relative="1" as="geometry">
            <Array as="points">
              <mxPoint x="-369" y="161" />
              <mxPoint x="-369" y="570" />
            </Array>
          </mxGeometry>
        </mxCell>
        <mxCell id="m4Vz5OQMiFnLoZ4AvXB2-96" value="不可用" style="edgeLabel;html=1;align=center;verticalAlign=middle;resizable=0;points=[];" vertex="1" connectable="0" parent="m4Vz5OQMiFnLoZ4AvXB2-95">
          <mxGeometry x="-0.5982" y="1" relative="1" as="geometry">
            <mxPoint as="offset" />
          </mxGeometry>
        </mxCell>
        <mxCell id="m4Vz5OQMiFnLoZ4AvXB2-89" value="检查合同状态" style="rhombus;whiteSpace=wrap;html=1;shadow=0;fontFamily=Helvetica;fontSize=12;align=center;strokeWidth=1;spacing=6;spacingTop=-4;" vertex="1" parent="WIyWlLk6GJQsqaUBKTNV-1">
          <mxGeometry x="-582.5" y="123" width="157" height="77" as="geometry" />
        </mxCell>
        <mxCell id="m4Vz5OQMiFnLoZ4AvXB2-92" value="结束" style="rounded=1;whiteSpace=wrap;html=1;fontSize=12;glass=0;strokeWidth=1;shadow=0;" vertex="1" parent="WIyWlLk6GJQsqaUBKTNV-1">
          <mxGeometry x="-564" y="550" width="120" height="40" as="geometry" />
        </mxCell>
      </root>
    </mxGraphModel>
  </diagram>
</mxfile>
